<mxfile host="Electron" agent="Mozilla/5.0 (Windows NT 10.0; Win64; x64) AppleWebKit/537.36 (KHTML, like Gecko) draw.io/24.7.8 Chrome/128.0.6613.36 Electron/32.0.1 Safari/537.36" version="24.7.8">
  <diagram id="3mJ2WOskCWPhdwfna0sN" name="Page-1">
    <mxGraphModel dx="1036" dy="1754" grid="1" gridSize="10" guides="1" tooltips="1" connect="1" arrows="1" fold="1" page="1" pageScale="1" pageWidth="850" pageHeight="1100" math="0" shadow="0">
      <root>
        <mxCell id="0" />
        <mxCell id="1" parent="0" />
        <mxCell id="UEhe8dxYu4hBen1Ix5AJ-20" value="" style="whiteSpace=wrap;html=1;aspect=fixed;fillColor=#f5f5f5;strokeColor=#666666;fontColor=#333333;" vertex="1" parent="1">
          <mxGeometry x="119" y="-30" width="540" height="540" as="geometry" />
        </mxCell>
        <mxCell id="UEhe8dxYu4hBen1Ix5AJ-10" style="edgeStyle=orthogonalEdgeStyle;rounded=0;orthogonalLoop=1;jettySize=auto;html=1;entryX=0.5;entryY=0;entryDx=0;entryDy=0;" edge="1" parent="1" source="UEhe8dxYu4hBen1Ix5AJ-1" target="UEhe8dxYu4hBen1Ix5AJ-4">
          <mxGeometry relative="1" as="geometry" />
        </mxCell>
        <mxCell id="UEhe8dxYu4hBen1Ix5AJ-1" value="Booking Requested" style="html=1;align=center;verticalAlign=top;rounded=1;absoluteArcSize=1;arcSize=10;dashed=0;whiteSpace=wrap;fillColor=#d5e8d4;strokeColor=#82b366;" vertex="1" parent="1">
          <mxGeometry x="320" y="100" width="140" height="40" as="geometry" />
        </mxCell>
        <mxCell id="UEhe8dxYu4hBen1Ix5AJ-2" value="Booking Approved" style="html=1;align=center;verticalAlign=top;rounded=1;absoluteArcSize=1;arcSize=10;dashed=0;whiteSpace=wrap;fillColor=#d5e8d4;strokeColor=#82b366;" vertex="1" parent="1">
          <mxGeometry x="425" y="310" width="140" height="40" as="geometry" />
        </mxCell>
        <mxCell id="UEhe8dxYu4hBen1Ix5AJ-3" value="Booking rejected" style="html=1;align=center;verticalAlign=top;rounded=1;absoluteArcSize=1;arcSize=10;dashed=0;whiteSpace=wrap;fillColor=#d5e8d4;strokeColor=#82b366;" vertex="1" parent="1">
          <mxGeometry x="210" y="310" width="140" height="40" as="geometry" />
        </mxCell>
        <mxCell id="UEhe8dxYu4hBen1Ix5AJ-7" style="edgeStyle=orthogonalEdgeStyle;rounded=0;orthogonalLoop=1;jettySize=auto;html=1;exitX=1;exitY=0.5;exitDx=0;exitDy=0;entryX=0.5;entryY=0;entryDx=0;entryDy=0;" edge="1" parent="1" source="UEhe8dxYu4hBen1Ix5AJ-4" target="UEhe8dxYu4hBen1Ix5AJ-2">
          <mxGeometry relative="1" as="geometry" />
        </mxCell>
        <mxCell id="UEhe8dxYu4hBen1Ix5AJ-9" style="edgeStyle=orthogonalEdgeStyle;rounded=0;orthogonalLoop=1;jettySize=auto;html=1;exitX=0;exitY=0.5;exitDx=0;exitDy=0;entryX=0.5;entryY=0;entryDx=0;entryDy=0;" edge="1" parent="1" source="UEhe8dxYu4hBen1Ix5AJ-4" target="UEhe8dxYu4hBen1Ix5AJ-3">
          <mxGeometry relative="1" as="geometry" />
        </mxCell>
        <mxCell id="UEhe8dxYu4hBen1Ix5AJ-4" value="Approved ?" style="rhombus;whiteSpace=wrap;html=1;fillColor=#d5e8d4;strokeColor=#82b366;" vertex="1" parent="1">
          <mxGeometry x="350" y="181" width="80" height="40" as="geometry" />
        </mxCell>
        <mxCell id="UEhe8dxYu4hBen1Ix5AJ-12" style="edgeStyle=orthogonalEdgeStyle;rounded=0;orthogonalLoop=1;jettySize=auto;html=1;exitX=0.5;exitY=1;exitDx=0;exitDy=0;entryX=0.5;entryY=0;entryDx=0;entryDy=0;" edge="1" parent="1" source="UEhe8dxYu4hBen1Ix5AJ-11" target="UEhe8dxYu4hBen1Ix5AJ-1">
          <mxGeometry relative="1" as="geometry" />
        </mxCell>
        <mxCell id="UEhe8dxYu4hBen1Ix5AJ-11" value="" style="ellipse;fillColor=strokeColor;html=1;" vertex="1" parent="1">
          <mxGeometry x="375" y="20" width="30" height="30" as="geometry" />
        </mxCell>
        <mxCell id="UEhe8dxYu4hBen1Ix5AJ-13" value="User Request Booking" style="text;html=1;align=center;verticalAlign=middle;resizable=0;points=[];autosize=1;strokeColor=none;fillColor=none;" vertex="1" parent="1">
          <mxGeometry x="390" y="60" width="140" height="30" as="geometry" />
        </mxCell>
        <mxCell id="UEhe8dxYu4hBen1Ix5AJ-14" value="Admin Approved Booking" style="text;html=1;align=center;verticalAlign=middle;resizable=0;points=[];autosize=1;strokeColor=none;fillColor=none;" vertex="1" parent="1">
          <mxGeometry x="490" y="210" width="160" height="30" as="geometry" />
        </mxCell>
        <mxCell id="UEhe8dxYu4hBen1Ix5AJ-15" value="Admin Rejected Booking" style="text;html=1;align=center;verticalAlign=middle;resizable=0;points=[];autosize=1;strokeColor=none;fillColor=none;" vertex="1" parent="1">
          <mxGeometry x="125" y="210" width="150" height="30" as="geometry" />
        </mxCell>
        <mxCell id="UEhe8dxYu4hBen1Ix5AJ-16" value="" style="shape=mxgraph.sysml.actFinal;html=1;verticalLabelPosition=bottom;labelBackgroundColor=#ffffff;verticalAlign=top;" vertex="1" parent="1">
          <mxGeometry x="375" y="400" width="40" height="40" as="geometry" />
        </mxCell>
        <mxCell id="UEhe8dxYu4hBen1Ix5AJ-18" style="edgeStyle=orthogonalEdgeStyle;rounded=0;orthogonalLoop=1;jettySize=auto;html=1;exitX=0.5;exitY=1;exitDx=0;exitDy=0;entryX=1;entryY=0.5;entryDx=0;entryDy=0;entryPerimeter=0;" edge="1" parent="1" source="UEhe8dxYu4hBen1Ix5AJ-2" target="UEhe8dxYu4hBen1Ix5AJ-16">
          <mxGeometry relative="1" as="geometry" />
        </mxCell>
        <mxCell id="UEhe8dxYu4hBen1Ix5AJ-19" style="edgeStyle=orthogonalEdgeStyle;rounded=0;orthogonalLoop=1;jettySize=auto;html=1;exitX=0.5;exitY=1;exitDx=0;exitDy=0;entryX=0;entryY=0.5;entryDx=0;entryDy=0;entryPerimeter=0;" edge="1" parent="1" source="UEhe8dxYu4hBen1Ix5AJ-3" target="UEhe8dxYu4hBen1Ix5AJ-16">
          <mxGeometry relative="1" as="geometry" />
        </mxCell>
        <mxCell id="UEhe8dxYu4hBen1Ix5AJ-21" value="&lt;b&gt;State Chart Diagram for Booking Object&lt;/b&gt;" style="text;html=1;align=center;verticalAlign=middle;resizable=0;points=[];autosize=1;strokeColor=none;fillColor=none;" vertex="1" parent="1">
          <mxGeometry x="270" y="-30" width="250" height="30" as="geometry" />
        </mxCell>
      </root>
    </mxGraphModel>
  </diagram>
</mxfile>
